<?xml version="1.0" encoding="UTF-8" standalone="no"?>
<svg
   xmlns:dc="http://purl.org/dc/elements/1.1/"
   xmlns:cc="http://creativecommons.org/ns#"
   xmlns:rdf="http://www.w3.org/1999/02/22-rdf-syntax-ns#"
   xmlns:svg="http://www.w3.org/2000/svg"
   xmlns="http://www.w3.org/2000/svg"
   xmlns:sodipodi="http://sodipodi.sourceforge.net/DTD/sodipodi-0.dtd"
   xmlns:inkscape="http://www.inkscape.org/namespaces/inkscape"
   width="69.671562mm"
   height="41.206326mm"
   viewBox="0 0 69.671562 41.206326"
   version="1.1"
   id="svg8"
   inkscape:version="1.0.1 (3bc2e813f5, 2020-09-07)"
   sodipodi:docname="logo.svg">
  <defs
     id="defs2" />
  <sodipodi:namedview
     id="base"
     pagecolor="#ffffff"
     bordercolor="#666666"
     borderopacity="1.0"
     inkscape:pageopacity="0.0"
     inkscape:pageshadow="2"
     inkscape:zoom="0.49497475"
     inkscape:cx="423.03175"
     inkscape:cy="385.13843"
     inkscape:document-units="mm"
     inkscape:current-layer="layer1"
     inkscape:document-rotation="0"
     showgrid="false"
     inkscape:window-width="1816"
     inkscape:window-height="1030"
     inkscape:window-x="86"
     inkscape:window-y="0"
     inkscape:window-maximized="0" />
  <metadata
     id="metadata5">
    <rdf:RDF>
      <cc:Work
         rdf:about="">
        <dc:format>image/svg+xml</dc:format>
        <dc:type
           rdf:resource="http://purl.org/dc/dcmitype/StillImage" />
        <dc:title />
      </cc:Work>
    </rdf:RDF>
  </metadata>
  <g
     inkscape:label="Calque 1"
     inkscape:groupmode="layer"
     id="layer1"
     transform="translate(-59.74059,-34.943892)">
    <path
       style="fill:#002d46;stroke-width:0.264583"
       d="m 81.170382,75.92347 c -2.79142,-0.406033 -5.98282,-1.620137 -8.17993,-3.111889 -1.43343,-0.973241 -3.87867,-3.567933 -4.81497,-5.109248 -2.23467,-3.678671 -3.25795,-8.306049 -2.75375,-12.452799 1.01135,-8.317905 6.1741,-14.309982 14.29549,-16.591897 2.73974,-0.769802 6.65135,-1.337658 8.8615,-1.286443 1.01864,0.0236 1.37583,0.08058 0.79375,0.126603 -5.29699,0.418845 -9.02588,1.343153 -12.81444,3.176413 -3.46686,1.677593 -6.27292,4.458171 -8.01822,7.945404 -1.6672,3.331194 -2.15136,5.658922 -1.98948,9.564926 0.15887,3.833498 0.96876,6.533862 2.80181,9.341803 2.33077,3.57038 6.17561,6.264852 10.52794,7.377989 2.70173,0.690985 7.39609,0.693144 10.02155,0.0046 2.40736,-0.631338 2.56921,-0.467077 0.22642,0.229799 -3.46047,1.029335 -5.84181,1.237951 -8.95767,0.78473 z m 2.21045,-5.126509 C 78.460792,69.861 74.793802,67.58331 72.368102,63.95659 c -1.83808,-2.748153 -2.31022,-4.40572 -2.31022,-8.110599 0,-2.278975 0.12299,-3.395671 0.48998,-4.448911 0.60541,-1.73747 0.8226,-1.684634 0.29407,0.07154 -0.50413,1.6751 -0.49501,5.43969 0.018,7.40909 1.00993,3.877379 3.80093,7.22766 7.57241,9.089822 3.30703,1.632842 5.20632,2.019998 9.74955,1.987373 3.37023,-0.02421 4.64029,-0.177163 10.45104,-1.258668 7.672918,-1.428094 10.320298,-1.570437 13.100638,-0.704387 0.94796,0.29528 1.95999,0.719989 2.24896,0.943795 0.3064,0.237305 -0.026,0.162219 -0.79751,-0.180142 -1.14553,-0.508341 -1.78414,-0.587105 -4.76251,-0.587375 -3.03534,-2.64e-4 -3.9371,0.115367 -7.67292,0.98397 -2.328328,0.541356 -5.245358,1.167133 -6.482288,1.390616 -3.31568,0.599067 -8.44422,0.718843 -10.88642,0.254251 z m 45.389808,-2.311525 c -0.69769,-1.555046 -3.37823,-4.172537 -5.13463,-5.013857 -5.44129,-2.606386 -9.95045,-2.857013 -19.84375,-1.102952 -4.892328,0.867399 -9.921468,0.972542 -12.303128,0.257222 -3.80546,-1.142952 -7.03628,-3.801978 -7.94546,-6.539252 -0.53602,-1.613799 -0.42632,-4.097287 0.24437,-5.532273 0.23805,-0.509323 0.35834,-0.687916 0.26732,-0.396875 -0.37773,1.20771 -0.42881,4.142287 -0.0932,5.354496 0.46762,1.689055 2.91261,4.137239 5.27802,5.284906 3.36549,1.632892 6.57115,1.744416 14.155198,0.492448 2.18282,-0.360336 5.27844,-0.785112 6.87917,-0.943946 8.42066,-0.835549 15.82209,2.161545 18.49045,7.487428 0.41985,0.837996 0.70637,1.580626 0.63672,1.650286 -0.0697,0.06966 -0.35365,-0.379275 -0.63108,-0.997631 z M 60.366642,62.141747 c -0.53101,-1.857209 -0.62728,-2.78469 -0.62604,-6.031172 10e-4,-3.334444 0.0815,-4.0615 0.61321,-5.556251 2.49545,-7.015544 8.89365,-11.913164 18.17074,-13.909123 2.27177,-0.488768 9.01336,-0.615805 10.66042,-0.200881 0.58945,0.148493 -0.39371,0.229023 -3.04271,0.249226 -3.00762,0.02294 -4.52601,0.167195 -6.55938,0.623181 -10.16828,2.280257 -16.84655,7.725711 -18.83038,15.354264 -0.57469,2.209878 -0.57132,6.841604 0.007,9.507123 0.23463,1.081571 0.38342,2.009661 0.33067,2.062421 -0.0528,0.05276 -0.37831,-0.891696 -0.72344,-2.098788 z m 42.234988,-7.276333 c -3.407878,-1.449245 -3.466408,-1.463273 -6.349998,-1.521938 -3.13784,-0.06384 -4.52401,-0.42754 -6.29175,-1.650831 -1.09771,-0.759626 -2.64955,-2.726249 -3.10697,-3.937418 -0.32101,-0.849964 -0.22913,-0.771943 1.044,0.88655 0.47716,0.621589 1.39001,1.489612 2.02855,1.928941 1.93119,1.328695 3.11155,1.633894 6.45989,1.6703 l 3.04413,0.0331 3.570458,1.788292 c 1.96374,0.983561 3.7992,1.787233 4.07878,1.785938 0.27958,-0.0013 0.74339,-0.210714 1.03069,-0.465376 0.50505,-0.447682 0.51255,-0.444331 0.22662,0.101164 -0.666,1.270559 -1.50453,1.180086 -5.7344,-0.61872 z m 6.98426,-1.237917 c 0.87238,-1.196821 0.71369,-1.592055 -1.09728,-2.732779 -1.91309,-1.205059 -5.21783,-3.839134 -6.52198,-5.198409 -0.61888,-0.645045 -0.90783,-1.203762 -0.92604,-1.79056 -0.0222,-0.714438 -0.33761,-1.124654 -1.942568,-2.526144 -1.05385,-0.920259 -1.84182,-1.673198 -1.75102,-1.673198 0.26571,0 1.96849,1.080486 3.468698,2.201042 1.17543,0.877967 1.38906,1.169122 1.38906,1.893134 0,0.732154 0.27676,1.096572 1.91823,2.525783 1.05503,0.918602 2.96003,2.451657 4.23333,3.406789 2.63114,1.973665 2.80466,2.414227 1.49415,3.793558 -0.73193,0.770361 -0.76062,0.781291 -0.26458,0.100784 z M 84.213092,49.247023 c 0,-0.136933 0.1177,-0.321711 0.26156,-0.410617 0.14998,-0.09269 0.19433,0.01351 0.10398,0.248968 -0.17589,0.458369 -0.36554,0.542234 -0.36554,0.161649 z m 12.18119,-10.780162 c -0.006,-0.46347 0.10576,-1.148079 0.24768,-1.521354 0.31544,-0.829681 0.19037,-0.840933 -1.75341,-0.157747 l -1.48216,0.520936 0.49658,-0.558437 c 0.7611,-0.855911 3.0047,-1.80087 4.28264,-1.803767 l 1.14023,-0.0026 -1.05932,1.256771 c -0.58262,0.691224 -1.2399,1.67349 -1.4606,2.182813 l -0.40128,0.926041 -0.0103,-0.842671 z"
       id="path24" />
  </g>
</svg>
